<svg xmlns="http://www.w3.org/2000/svg" width="20.499" height="28.789" viewBox="0 0 20.499 28.789">
  <path id="Subtraction_8" data-name="Subtraction 8" d="M12.438,28.789H3.817A3.774,3.774,0,0,1,1.1,27.642,3.827,3.827,0,0,1,0,24.961V3.827A3.825,3.825,0,0,1,1.1,1.1,3.8,3.8,0,0,1,3.817,0H16.551A3.755,3.755,0,0,1,20.37,3.827V6.635h0l.007,0c.168.173.128,7.03.064,12.751h-2.62V3.827a1.361,1.361,0,0,0-1.273-1.275H3.817A1.359,1.359,0,0,0,2.547,3.827V24.961a1.36,1.36,0,0,0,1.271,1.277h3.82v-5.1a1.362,1.362,0,0,1,1.274-1.276h2.547a1.274,1.274,0,0,1,.876.4c.034.034.067.072.1.115v8.415Zm7.932-2.937h-2.4V22.62H20.4l-.011.746c-.01.637-.017,1.158-.021,1.443,0,.069,0,.116,0,.138v.9ZM14,17.307H12.732a1.207,1.207,0,0,1-1.273-1.276V14.755a1.207,1.207,0,0,1,1.273-1.276H14a1.207,1.207,0,0,1,1.273,1.276v1.276A1.207,1.207,0,0,1,14,17.307Zm-6.366,0H6.366a1.207,1.207,0,0,1-1.273-1.276V14.755a1.207,1.207,0,0,1,1.273-1.276H7.638a1.207,1.207,0,0,1,1.274,1.276v1.276A1.208,1.208,0,0,1,7.638,17.307ZM14,10.927H12.732a1.207,1.207,0,0,1-1.273-1.276V8.376A1.206,1.206,0,0,1,12.732,7.1H14a1.207,1.207,0,0,1,1.273,1.275V9.652A1.207,1.207,0,0,1,14,10.927Zm-6.366,0H6.366A1.207,1.207,0,0,1,5.093,9.652V8.376A1.206,1.206,0,0,1,6.366,7.1H7.638A1.207,1.207,0,0,1,8.912,8.376V9.652A1.207,1.207,0,0,1,7.638,10.927Z" fill="#1cb281"/>
</svg>
