<svg xmlns="http://www.w3.org/2000/svg" width="26.876" height="19.837" viewBox="0 0 26.876 19.837">
  <g id="Group_10383" data-name="Group 10383" transform="translate(6691.976 -4600.75)">
    <path id="Path_4886" data-name="Path 4886" d="M103.446,102.957H124.54a2.64,2.64,0,0,0,0-5.281H103.446a2.641,2.641,0,0,0,0,5.281Zm-1.03-3.668a1.448,1.448,0,0,1,1.03-.428H124.54a1.455,1.455,0,1,1,0,2.91H103.445a1.455,1.455,0,0,1-1.03-2.482Z" transform="translate(-6792.531 4503.324)" fill="#1cb281" stroke="#1cb281" stroke-width="0.5"/>
    <path id="Path_4887" data-name="Path 4887" d="M170.955,226.031h3.88a1.63,1.63,0,0,0,1.631-1.219l2.409-11.309a.593.593,0,0,0-1.159-.247l-.687,3.223h-3.8l.557-2.99a.593.593,0,0,0-1.166-.217l-.6,3.207H165.5l-.6-3.207a.593.593,0,1,0-1.166.217l.557,2.99h-3.8l-.687-3.223a.593.593,0,0,0-1.159.247l1.07,5.022a.593.593,0,0,0,.579.469.624.624,0,0,0,.124-.013.593.593,0,0,0,.456-.7l-.131-.614h3.771l.576,3.093h-3.688l-.1-.463a.593.593,0,1,0-1.16.247l.91,4.271a1.63,1.63,0,0,0,1.631,1.219h8.267Zm-3.893-1.185-.541-2.9H171l-.541,2.9Zm7.773,0h-3.168l.541-2.9h3.657l-.559,2.622a.461.461,0,0,1-.472.281Zm1.942-7.181-.659,3.093H172.43l.576-3.093Zm-11.053,0H171.8l-.576,3.093H166.3Zm-3.506,6.9-.559-2.622h3.657l.541,2.9h-3.168a.46.46,0,0,1-.471-.281Z" transform="translate(-6847.301 4394.306)" fill="#1cb281" stroke="#1cb281" stroke-width="0.5"/>
  </g>
</svg>
