<svg id="noun-street-5101078" xmlns="http://www.w3.org/2000/svg" width="27.673" height="27.069" viewBox="0 0 27.673 27.069">
  <path id="Path_4829" data-name="Path 4829" d="M101.017,91.956s3.69-5.736,3.69-7.394a5.148,5.148,0,0,0-10.3,0c0,1.658,3.691,7.394,3.691,7.394s.826.894,1.458.894a1.6,1.6,0,0,0,1.458-.894ZM86.644,96.481a.867.867,0,1,1,0-1.734h25.938a.867.867,0,1,1,0,1.734Zm10.185,3.267a.867.867,0,1,1,0,1.734h-3.5a.867.867,0,0,1,0-1.734Zm9.073,0a.867.867,0,0,1,0,1.734h-3.5a.867.867,0,1,1,0-1.734Zm-19.258,6.737a.867.867,0,0,1,0-1.734h25.938a.867.867,0,0,1,0,1.734ZM99.559,81.75a2.811,2.811,0,1,1-2.811,2.811A2.811,2.811,0,0,1,99.559,81.75Z" transform="translate(-85.777 -79.415)" fill="#1cb281" fill-rule="evenodd"/>
</svg>
