<svg xmlns="http://www.w3.org/2000/svg" width="26" height="26" viewBox="0 0 26 26">
  <path id="Path_4885" data-name="Path 4885" d="M139.87,44.8H115.728a.928.928,0,0,0-.929.929v13a.928.928,0,0,0,.929.929h9.286v9.286h-2.786a.929.929,0,1,0,0,1.857H133.37a.929.929,0,1,0,0-1.857h-2.786V59.658h9.286a.928.928,0,0,0,.929-.929v-13a.928.928,0,0,0-.929-.929ZM128.728,68.944H126.87V59.658h1.857ZM138.942,57.8H116.656V46.658h3.714v1.857h-.929a.929.929,0,0,0,0,1.857h3.714a.929.929,0,1,0,0-1.857h-.929V46.658h4.643v1.857h-.929a.929.929,0,1,0,0,1.857h3.714a.929.929,0,0,0,0-1.857h-.929V46.658h4.643v1.857h-.929a.929.929,0,1,0,0,1.857h3.714a.929.929,0,0,0,0-1.857h-.929V46.658h3.714Z" transform="translate(-114.799 -44.801)" fill="#1cb281"/>
</svg>
