<svg xmlns="http://www.w3.org/2000/svg" width="28.738" height="22.106" viewBox="0 0 28.738 22.106">
  <path id="Icon_metro-chart-dots" data-name="Icon metro-chart-dots" d="M11.671,29.818a3.316,3.316,0,0,1,0-6.632c.1,0,.194.005.29.013l3.564-5.941a3.316,3.316,0,1,1,5.556,0L24.645,23.2q.145-.013.29-.013c.074,0,.147,0,.219.008l5.884-10.3a3.316,3.316,0,1,1,2.739,1.447c-.074,0-.147,0-.219-.008l-5.884,10.3a3.316,3.316,0,1,1-5.517.059l-3.564-5.94c-.1.008-.192.013-.29.013s-.194-.005-.29-.013l-3.564,5.941a3.315,3.315,0,0,1-2.778,5.126Z" transform="translate(-8.355 -7.712)" fill="#1cb281"/>
</svg>
