<svg xmlns="http://www.w3.org/2000/svg" width="40.659" height="45.176" viewBox="0 0 40.659 45.176">
  <g id="Group_10216" data-name="Group 10216" transform="translate(-1204 -284)">
    <g id="noun-report-5489099" transform="translate(1204 284)">
      <g id="Group_10208" data-name="Group 10208" transform="translate(28.446 13.056) rotate(90)">
        <path id="Path_4726" data-name="Path 4726" d="M0,15.812a2.259,2.259,0,1,0,4.517,0V2.259A2.259,2.259,0,1,0,0,2.259Z" transform="translate(9.036 0)" fill="#f7f9fc"/>
        <path id="Path_4727" data-name="Path 4727" d="M0,6.776a2.259,2.259,0,0,0,4.518,0V2.259A2.259,2.259,0,0,0,0,2.259Z" transform="translate(0 9.035)" fill="#f7f9fc"/>
        <path id="Path_4728" data-name="Path 4728" d="M2.259,13.553A2.259,2.259,0,0,1,0,11.294V2.259a2.259,2.259,0,0,1,4.518,0v9.036A2.259,2.259,0,0,1,2.259,13.553Z" transform="translate(18.07 4.518)" fill="#f7f9fc"/>
      </g>
      <path id="Path_4729" data-name="Path 4729" d="M146.776,46.666A6.776,6.776,0,0,0,140,53.443V85.065a6.776,6.776,0,0,0,6.776,6.776h27.106a6.776,6.776,0,0,0,6.776-6.776V60.219a2.259,2.259,0,0,0-.662-1.6L168.7,47.327a2.259,2.259,0,0,0-1.6-.661Zm-2.259,6.776a2.259,2.259,0,0,1,2.259-2.259h18.071V55.7a6.776,6.776,0,0,0,6.776,6.776h4.517V85.065a2.259,2.259,0,0,1-2.259,2.259H146.777a2.259,2.259,0,0,1-2.259-2.259Zm28.429,4.517-3.582-3.582V55.7a2.259,2.259,0,0,0,2.259,2.259Z" transform="translate(-140 -46.666)" fill="#f7f9fc" fill-rule="evenodd"/>
    </g>
  </g>
</svg>
