<svg xmlns="http://www.w3.org/2000/svg" width="16.381" height="17.493" viewBox="0 0 16.381 17.493">
  <path id="noun-folder-5520013" d="M129.713,73.77h-1.72a1.9,1.9,0,0,1-1.51-.755l-1.7-2.266a1.9,1.9,0,0,0-1.51-.755H119.5a2.828,2.828,0,0,0-2.832,2.832V84.155a2.828,2.828,0,0,0,2.832,2.832h10.217a2.828,2.828,0,0,0,2.832-2.832V76.6a2.828,2.828,0,0,0-2.832-2.832ZM119.5,71.41h3.776a.452.452,0,0,1,.378.189l1.624,2.171H119.5a2.776,2.776,0,0,0-1.416.4V72.826A1.414,1.414,0,0,1,119.5,71.41Zm11.633,12.744a1.414,1.414,0,0,1-1.416,1.416H119.5a1.414,1.414,0,0,1-1.416-1.416V76.6a1.414,1.414,0,0,1,1.416-1.416h10.217a1.414,1.414,0,0,1,1.416,1.416Z" transform="translate(-116.414 -69.744)" fill="#20b997" stroke="#20b997" stroke-width="0.5"/>
</svg>
