<svg xmlns="http://www.w3.org/2000/svg" width="101.323" height="101.323" viewBox="0 0 101.323 101.323">
  <g id="Group_10200" data-name="Group 10200" transform="translate(31.25 31.248)">
    <circle id="Ellipse_270" data-name="Ellipse 270" cx="19.412" cy="19.412" r="19.412" transform="translate(0 0.002)" fill="none" stroke="#f7f9fc" stroke-width="0.5"/>
    <path id="Icon_awesome-user-alt" data-name="Icon awesome-user-alt" d="M10.808,12.159A6.079,6.079,0,1,0,4.728,6.079,6.081,6.081,0,0,0,10.808,12.159Zm5.4,1.351H13.885a7.349,7.349,0,0,1-6.155,0H5.4a5.4,5.4,0,0,0-5.4,5.4v.675a2.027,2.027,0,0,0,2.026,2.026H19.589a2.027,2.027,0,0,0,2.026-2.026v-.675A5.4,5.4,0,0,0,16.212,13.51Z" transform="translate(8.604 7.817)" fill="#f7f9fc"/>
    <circle id="Ellipse_297" data-name="Ellipse 297" cx="29.412" cy="29.412" r="29.412" transform="translate(-10 -9.998)" fill="none" stroke="#fff" stroke-width="0.5" opacity="0.5"/>
    <circle id="Ellipse_298" data-name="Ellipse 298" cx="39.412" cy="39.412" r="39.412" transform="translate(-20 -19.998)" fill="none" stroke="#fff" stroke-width="0.5" opacity="0.3"/>
    <circle id="Ellipse_299" data-name="Ellipse 299" cx="50.412" cy="50.412" r="50.412" transform="translate(-31 -30.998)" fill="none" stroke="#fff" stroke-width="0.5" opacity="0.2"/>
  </g>
</svg>
