<svg xmlns="http://www.w3.org/2000/svg" width="18.576" height="22.291" viewBox="0 0 18.576 22.291">
  <g id="Group_10227" data-name="Group 10227" transform="translate(6034.534 1555)">
    <path id="Path_4844" data-name="Path 4844" d="M225.819,212.8h-9.288a.929.929,0,0,0,0,1.858h9.288a.929.929,0,0,0,0-1.858Z" transform="translate(-6246.421 -1759.441)" fill="#20b997"/>
    <path id="Path_4845" data-name="Path 4845" d="M225.819,302.4h-9.288a.929.929,0,0,0,0,1.858h9.288a.929.929,0,0,0,0-1.858Z" transform="translate(-6246.421 -1845.326)" fill="#20b997"/>
    <path id="Path_4846" data-name="Path 4846" d="M222.1,392h-5.573a.929.929,0,1,0,0,1.858H222.1a.929.929,0,1,0,0-1.858Z" transform="translate(-6246.421 -1931.211)" fill="#20b997"/>
    <path id="Path_4847" data-name="Path 4847" d="M141.786,13.984H139a2.787,2.787,0,0,0-2.787-2.786h-1.857a2.787,2.787,0,0,0-2.786,2.786h-2.786A2.787,2.787,0,0,0,126,16.771V30.7a2.787,2.787,0,0,0,2.786,2.786h13a2.787,2.787,0,0,0,2.786-2.786V16.771a2.787,2.787,0,0,0-2.786-2.787Zm-8.359,0a.929.929,0,0,1,.929-.929h1.857a.929.929,0,0,1,.929.929v1.858h-3.715ZM142.715,30.7a.929.929,0,0,1-.929.929h-13a.929.929,0,0,1-.929-.929V16.771a.929.929,0,0,1,.929-.929h2.786v.929a.929.929,0,0,0,.929.929h5.573a.929.929,0,0,0,.929-.929v-.929h2.786a.929.929,0,0,1,.929.929Z" transform="translate(-6160.531 -1566.198)" fill="#20b997"/>
  </g>
</svg>
