<svg xmlns="http://www.w3.org/2000/svg" width="26.514" height="32.315" viewBox="0 0 26.514 32.315">
  <path id="Icon_material-notifications-none" data-name="Icon material-notifications-none" d="M19.257,36.065a3.324,3.324,0,0,0,3.314-3.314H15.943A3.324,3.324,0,0,0,19.257,36.065ZM29.2,26.122V17.836c0-5.087-2.7-9.346-7.457-10.473V6.236a2.486,2.486,0,1,0-4.971,0V7.363c-4.739,1.127-7.457,5.369-7.457,10.473v8.286L6,29.436v1.657H32.514V29.436Zm-3.314,1.657H12.629V17.836c0-4.11,2.5-7.457,6.629-7.457s6.629,3.347,6.629,7.457Z" transform="translate(-6 -3.75)" fill="#f7f9fc"/>
</svg>
