<svg xmlns="http://www.w3.org/2000/svg" width="59.312" height="58.019" viewBox="0 0 59.312 58.019">
  <g id="noun-street-5101078" transform="translate(-85.777 -79.415)">
    <path id="Path_4829" data-name="Path 4829" d="M118.441,106.3S126.35,94,126.35,90.448a11.034,11.034,0,0,0-22.068,0c0,3.554,7.911,15.848,7.911,15.848s1.771,1.917,3.124,1.917a3.431,3.431,0,0,0,3.124-1.917Zm-30.806,9.7a1.859,1.859,0,1,1,0-3.717h55.595a1.859,1.859,0,1,1,0,3.717Zm21.83,7a1.859,1.859,0,1,1,0,3.717h-7.512a1.859,1.859,0,0,1,0-3.717Zm19.447,0a1.859,1.859,0,0,1,0,3.717H121.4a1.859,1.859,0,1,1,0-3.717ZM87.636,137.434a1.859,1.859,0,0,1,0-3.717h55.6a1.859,1.859,0,0,1,0,3.717Zm27.68-53.014a6.025,6.025,0,1,1-6.025,6.025A6.026,6.026,0,0,1,115.316,84.42Z" transform="translate(0 0)" fill="#1cb281" fill-rule="evenodd"/>
  </g>
</svg>
