<svg xmlns="http://www.w3.org/2000/svg" width="37.792" height="69.192" viewBox="0 0 37.792 69.192">
  <g id="Group_10192" data-name="Group 10192" transform="translate(8910.956 904)">
    <path id="Path_4782" data-name="Path 4782" d="M262.545,83.3a2.046,2.046,0,0,0-2.78,0c-.715.663-17.506,16.373-17.506,30.343,0,12.454,6.255,20.183,16.85,21.054v7.7H263.2v-7.7c10.595-.87,16.85-8.6,16.85-21.054,0-13.97-16.791-29.68-17.506-30.343Zm-3.436,47.279c-8.243-.827-12.757-6.76-12.757-16.936,0-.31.011-.622.031-.935l12.727,12.724Zm0-10.934-11.741-11.74a35.965,35.965,0,0,1,3.461-7.251l8.281,8.279Zm0-16.5-5.977-5.977a78.752,78.752,0,0,1,5.977-7.341ZM263.2,89.827a78.663,78.663,0,0,1,5.981,7.341L263.2,103.15Zm0,19.109,8.283-8.283a35.844,35.844,0,0,1,3.459,7.252L263.2,119.647Zm0,21.646v-5.147l12.726-12.727c.02.314.031.627.031.937,0,10.176-4.516,16.11-12.757,16.937Z" transform="translate(-9153.215 -986.758)" fill="#1cb281"/>
    <path id="Path_4783" data-name="Path 4783" d="M338.33,442.25h4.092v6.139H338.33Z" transform="translate(-9232.436 -1283.197)" fill="#1cb281"/>
  </g>
</svg>
