<svg xmlns="http://www.w3.org/2000/svg" width="44.5" height="62.363" viewBox="0 0 44.5 62.363">
  <path id="Subtraction_5" data-name="Subtraction 5" d="M9024,2159.364h-18.712a8.309,8.309,0,0,1-8.289-8.292v-45.78a8.143,8.143,0,0,1,8.289-8.291h27.641a8.143,8.143,0,0,1,8.289,8.291v6.081h0a.031.031,0,0,1,.016.007c.367.374.279,15.228.141,27.622h-5.688v-33.71a2.95,2.95,0,0,0-2.762-2.764h-27.641a2.95,2.95,0,0,0-2.762,2.764v45.78a2.952,2.952,0,0,0,2.762,2.766h8.294v-11.055a2.951,2.951,0,0,1,2.762-2.764h5.529a2.766,2.766,0,0,1,1.9.865c.074.074.147.156.225.25v18.229Zm17.218-6.363H9036v-7h5.292l-.022,1.616c-.02,1.379-.036,2.509-.046,3.125,0,.15,0,.252,0,.3V2153Zm-13.819-18.509h-2.761a2.617,2.617,0,0,1-2.765-2.764v-2.764a2.617,2.617,0,0,1,2.765-2.764h2.761a2.617,2.617,0,0,1,2.765,2.764v2.764A2.617,2.617,0,0,1,9027.4,2134.491Zm-13.816,0h-2.764a2.616,2.616,0,0,1-2.764-2.764v-2.764a2.616,2.616,0,0,1,2.764-2.764h2.764a2.615,2.615,0,0,1,2.762,2.764v2.764A2.615,2.615,0,0,1,9013.583,2134.491Zm13.816-13.819h-2.761a2.617,2.617,0,0,1-2.765-2.764v-2.764a2.616,2.616,0,0,1,2.765-2.762h2.761a2.616,2.616,0,0,1,2.765,2.762v2.764A2.617,2.617,0,0,1,9027.4,2120.672Zm-13.816,0h-2.764a2.616,2.616,0,0,1-2.764-2.764v-2.764a2.615,2.615,0,0,1,2.764-2.762h2.764a2.614,2.614,0,0,1,2.762,2.762v2.764A2.615,2.615,0,0,1,9013.583,2120.672Z" transform="translate(-8997 -2097.001)" fill="#1cb281"/>
</svg>
